<svg width="24" height="29" fill="none" xmlns="http://www.w3.org/2000/svg"><path d="M11.06.447a6.51 6.51 0 0 0-2.837 1.024c-.407.269-1.157 1.033-1.442 1.469a6.465 6.465 0 0 0-1.049 3.21l-.022.53H3.535c-1.984 0-2.175.006-2.175.065 0 .144-.879 21.228-.903 21.665l-.026.47h23.138l-.026-.47c-.024-.437-.903-21.521-.903-21.665 0-.059-.191-.065-2.175-.065H18.29l-.022-.53A6.413 6.413 0 0 0 17.2 2.917c-.3-.45-1.011-1.172-1.423-1.445a6.433 6.433 0 0 0-2.905-1.03 10.856 10.856 0 0 0-1.812.005m1.429 1.473c1.336.111 2.304.53 3.038 1.315A4.52 4.52 0 0 1 16.58 5.1c.106.364.218 1.06.219 1.367.001.095.022.175.051.187.028.011-2.155.021-4.85.022-2.695.002-4.88-.01-4.855-.027.024-.016.057-.2.072-.409.146-1.97 1.228-3.48 2.903-4.052a5.746 5.746 0 0 1 1.333-.266c.533-.044.525-.044 1.036-.002M21.2 8.346c0 .183.749 18.282.774 18.704l.018.31H2.008l.018-.31c.025-.422.774-18.521.774-18.704V8.2h18.4v.146M9.21 10.94c-.242.123-.347.253-.417.514-.092.343.084.739.395.887.247.119.521.122.732.009a.796.796 0 0 0 .095-1.362.76.76 0 0 0-.805-.048m6.05-.025c-.271.123-.5.454-.5.725 0 .148.095.374.212.507.496.565 1.388.239 1.388-.507a.779.779 0 0 0-1.1-.725" fill-rule="evenodd" fill="#000"/></svg>