<svg width="20" height="20" fill="none" xmlns="http://www.w3.org/2000/svg"><path d="M3.213.682A3.586 3.586 0 0 0 1.2 1.704C.731 2.173.424 2.715.241 3.398c-.074.277-.086.389-.087.852-.002.445.01.582.072.828.165.656.461 1.199.907 1.668.313.329.557.517.913.707a3.615 3.615 0 0 0 3.874-.279 3.617 3.617 0 0 0 1.033-4.628A3.633 3.633 0 0 0 3.213.682m1.004 1.501a2.182 2.182 0 0 1 1.551 1.363c.211.6.125 1.351-.211 1.858-.621.936-1.773 1.251-2.757.755a2.154 2.154 0 0 1-1.166-1.892 2.15 2.15 0 0 1 1.167-1.896c.461-.228.928-.29 1.416-.188m7.258 1.42a.683.683 0 0 0-.207.161c-.155.218-.173.682-.036.926.103.183.248.269.519.308.315.046 7.183.046 7.498 0 .273-.039.415-.124.524-.314.064-.111.077-.182.077-.417 0-.343-.065-.498-.261-.628l-.134-.089-3.919-.009-3.919-.008-.142.07m4.113 8.815a3.652 3.652 0 0 0-2.707 2.208 4.853 4.853 0 0 0-.201.624c-.078.363-.078 1.106 0 1.461.399 1.821 2.031 3.041 3.862 2.886 1.45-.122 2.658-1.072 3.136-2.465.674-1.967-.502-4.124-2.538-4.654-.413-.108-1.148-.136-1.552-.06m1.192 1.515c.388.099.63.243.954.566.211.211.316.348.409.534.313.626.286 1.443-.067 2.027a2.61 2.61 0 0 1-.699.726c-.471.313-1.174.411-1.76.245-.629-.178-1.241-.809-1.435-1.481-.077-.265-.078-.825-.003-1.113.188-.72.85-1.367 1.554-1.519a2.51 2.51 0 0 1 1.047.015M.65 15.264a.798.798 0 0 0-.362.197c-.141.157-.196.539-.117.822a.689.689 0 0 0 .413.413c.187.052 7.645.052 7.832 0a.689.689 0 0 0 .413-.413c.079-.283.024-.665-.117-.822a.94.94 0 0 0-.195-.14l-.134-.071-3.816-.005c-2.099-.003-3.862.006-3.917.019" fill-rule="evenodd" fill="#000"/></svg>