<svg width="23" height="23" fill="none" xmlns="http://www.w3.org/2000/svg"><path d="M17.595 1.533a3.435 3.435 0 0 0-1.061.306 3.057 3.057 0 0 0-.946.65c-.714.683-1.07 1.527-1.067 2.533.002.954.337 1.755 1.02 2.437.682.683 1.483 1.018 2.437 1.02.963.003 1.742-.306 2.429-.963a3.375 3.375 0 0 0 1.07-2.514c0-.982-.364-1.838-1.07-2.513a3.06 3.06 0 0 0-.951-.652c-.546-.256-1.284-.377-1.861-.304M3.091 3.699a3.41 3.41 0 0 0-.999.358C.58 4.83-.183 6.58.269 8.234c.329 1.203 1.266 2.142 2.518 2.525.308.094.392.103.97.103.576 0 .663-.009.977-.103 1.359-.409 2.307-1.44 2.585-2.811.1-.493.1-.876 0-1.366-.286-1.403-1.274-2.456-2.662-2.833-.362-.099-1.204-.126-1.566-.05m1.375 1.55a2.29 2.29 0 0 1 1.188 1.037c.226.446.29 1.087.155 1.554-.146.508-.527 1-.984 1.273-.416.248-1.056.339-1.557.221-.745-.176-1.422-.855-1.577-1.583a2.922 2.922 0 0 1 0-.974c.15-.719.814-1.394 1.559-1.583.306-.078.913-.05 1.216.055m7.091 1.314c-.28.098-.414.325-.414.701 0 .288.055.44.21.579.175.158.287.169 1.82.169h1.47l-.249-.336a5.406 5.406 0 0 1-.596-1.069l-.034-.09-1.046.003c-.622.001-1.092.019-1.161.043m4.07 8.846a3.636 3.636 0 0 0-3.004 3.393 3.596 3.596 0 0 0 .982 2.673c1.752 1.867 4.848 1.354 5.928-.982.246-.533.303-.813.304-1.499.001-.668-.048-.92-.285-1.477-.403-.946-1.277-1.703-2.329-2.015-.277-.082-.434-.102-.874-.113a5.51 5.51 0 0 0-.722.02m1.052 1.497c.749.141 1.445.818 1.625 1.58a2.116 2.116 0 0 1-.555 1.987c-.309.312-.59.474-1.003.578a2.092 2.092 0 0 1-1.735-.33 2.134 2.134 0 0 1-.691-2.654c.258-.536.827-1.005 1.383-1.14.27-.065.694-.075.976-.021M.56 18.286c-.257.077-.416.331-.418.668-.003.425.145.662.47.749.1.027 1.403.037 3.976.03 3.761-.01 3.828-.012 3.96-.088.193-.111.307-.357.307-.66 0-.382-.13-.598-.418-.695-.157-.052-7.701-.056-7.877-.004" fill-rule="evenodd" fill="#000"/></svg>