<svg width="32" height="32" fill="none" xmlns="http://www.w3.org/2000/svg"><path d="M13.493 3.313c-1.147.115-2.67.539-3.68 1.022A11.093 11.093 0 0 0 6.608 6.61a11.073 11.073 0 0 0-2.783 4.487c-1.023 3.057-.651 6.55.995 9.347.942 1.6 2.466 3.126 4.062 4.065 3.544 2.086 8.024 2.087 11.566.002.53-.311 1.286-.85 1.566-1.116l.175-.165 2.759 2.755c1.849 1.847 2.807 2.767 2.905 2.791.23.056.417-.018.661-.262.244-.244.318-.431.262-.661-.024-.098-.944-1.056-2.791-2.905l-2.755-2.759.165-.175c.512-.54 1.262-1.728 1.674-2.65 1.914-4.281 1.063-9.221-2.17-12.591a11.46 11.46 0 0 0-9.406-3.46m2.088 1.488c1.2.119 2.177.383 3.219.868 2.103.98 3.732 2.566 4.748 4.624.591 1.197.875 2.236.995 3.632a9.674 9.674 0 0 1-.88 4.875c-2.493 5.364-9.024 7.4-14.063 4.385-2.332-1.396-4.06-3.794-4.617-6.412-.2-.936-.268-1.964-.191-2.866.113-1.31.36-2.258.878-3.374a9.768 9.768 0 0 1 2.124-2.988 8.623 8.623 0 0 1 1.65-1.289 9.812 9.812 0 0 1 6.137-1.455" fill-rule="evenodd" fill="#000"/></svg>