<svg width="21" height="18" fill="none" xmlns="http://www.w3.org/2000/svg"><path d="M19.303.315c-.52.057-.735.133-3.457 1.222-4.163 1.665-9.059 3.748-12.241 5.209C2.09 7.441.392 8.313.202 8.494c-.348.332-.215.647.414.98.596.315 1.817.775 2.903 1.092.777.228 1.593.304 2.117.199.505-.102.796-.251 2.082-1.065 1.157-.732 2.172-1.43 4.704-3.235 1.703-1.215 1.995-1.41 2.396-1.604.404-.195.585-.178.579.055-.005.208-.091.342-.522.81-.518.562-1.342 1.356-2.939 2.833-1.344 1.243-2.22 2.083-2.461 2.361-.21.24-.432.689-.473.954-.051.33.032.654.228.888.176.211 6.794 4.75 7.077 4.854.143.053.275.072.493.07.476-.004.871-.18 1.206-.538.314-.336.334-.407.686-2.485 1.12-6.602 1.832-11.353 1.959-13.067.03-.415.027-.515-.019-.677-.136-.466-.612-.683-1.329-.604" fill="#D0D9DE" fill-rule="evenodd"/></svg>