<svg width="23" height="22" viewBox="0 0 23 22" fill="none" xmlns="http://www.w3.org/2000/svg">
<path fill-rule="evenodd" clip-rule="evenodd" d="M22.8418 6C22.8418 2.68629 20.1555 0 16.8418 0H6.8418C3.52809 0 0.841797 2.68629 0.841797 6V16C0.841797 19.3137 3.52809 22 6.8418 22H16.8418C20.1555 22 22.8418 19.3137 22.8418 16V6ZM8.44755 5.10578H15.236C16.6167 5.10578 17.736 6.22507 17.736 7.60578V14.3942C17.736 15.775 16.6167 16.8942 15.236 16.8942H8.44755C7.06684 16.8942 5.94755 15.775 5.94755 14.3942V7.60579C5.94755 6.22507 7.06684 5.10578 8.44755 5.10578ZM4.44755 7.60579C4.44755 5.39665 6.23841 3.60578 8.44755 3.60578H15.236C17.4451 3.60578 19.236 5.39664 19.236 7.60578V14.3942C19.236 16.6034 17.4451 18.3942 15.236 18.3942H8.44755C6.23841 18.3942 4.44755 16.6034 4.44755 14.3942V7.60579ZM9.64474 11C9.64474 12.2134 10.6284 13.1971 11.8419 13.1971C13.0553 13.1971 14.039 12.2134 14.039 11C14.039 9.78656 13.0553 8.80287 11.8419 8.80287C10.6284 8.80287 9.64474 9.78656 9.64474 11ZM11.8419 7.30287C9.79999 7.30287 8.14474 8.95813 8.14474 11C8.14474 13.0419 9.79999 14.6971 11.8419 14.6971C13.8837 14.6971 15.539 13.0419 15.539 11C15.539 8.95813 13.8837 7.30287 11.8419 7.30287ZM18.6869 2.2C18.2147 2.2 17.8319 2.58278 17.8319 3.05497C17.8319 3.52716 18.2147 3.90994 18.6869 3.90994C19.1591 3.90994 19.5419 3.52716 19.5419 3.05497C19.5419 2.58278 19.1591 2.2 18.6869 2.2Z" fill="#D0D9DE"/>
</svg>
