<svg width="113" height="28" viewBox="0 0 113 28" fill="none" xmlns="http://www.w3.org/2000/svg">
<g clip-path="url(#clip0_106_5721)">
<path fill-rule="evenodd" clip-rule="evenodd" d="M13.5206 25.1795L18.684 18.8706L12.8275 13.7411C9.60811 10.9197 4.53497 11.5901 1.8077 14.9206C-0.919583 18.2512 -0.513567 23.2872 2.70585 26.1087C5.92527 28.9301 10.7933 28.51 13.5206 25.1795Z" fill="#818181"/>
<path fill-rule="evenodd" clip-rule="evenodd" d="M47.2199 13.0834C49.9472 9.75287 49.5412 4.71676 46.3218 1.89535C43.1023 -0.926053 38.2343 -0.506022 35.507 2.8245L30.3436 9.13344L31.6478 10.2747L36.2001 14.2629C39.4196 17.0885 44.4927 16.4182 47.2199 13.0834Z" fill="#818181"/>
<path fill-rule="evenodd" clip-rule="evenodd" d="M47.22 13.0836L42.2617 19.1422L37.3034 25.2008C34.5761 28.5313 29.708 28.9513 26.4886 26.1299C21.8665 22.0823 17.2445 18.0348 12.6225 13.9873C9.40312 11.1658 4.53502 11.5859 1.80774 14.9164L6.76605 8.8578L11.7244 2.79924C14.4516 -0.531292 19.3197 -0.951321 22.5391 1.87008L31.8529 10.0246L36.4052 14.0127C39.6246 16.8342 44.4927 16.4184 47.22 13.0836Z" fill="#525252"/>
<path d="M60.3048 18.3848C58.5383 18.3848 57.139 17.8407 56.1069 16.7524L57.2531 15.0892C58.1066 16.0132 59.1586 16.4752 60.409 16.4752C60.9548 16.4752 61.3766 16.3674 61.6743 16.1518C61.982 15.9259 62.1358 15.6539 62.1358 15.3356C62.1358 15.0584 61.9919 14.8274 61.7041 14.6426C61.4263 14.4578 61.0739 14.3243 60.6472 14.2422C60.2304 14.1601 59.7739 14.042 59.2776 13.888C58.7815 13.734 58.32 13.5595 57.8932 13.3644C57.4764 13.1693 57.1241 12.8613 56.8363 12.4404C56.5585 12.0195 56.4195 11.5061 56.4195 10.9004C56.4195 10.0175 56.7619 9.27826 57.4466 8.68277C58.1314 8.07706 59.0445 7.77417 60.1857 7.77417C61.7636 7.77417 63.0538 8.25157 64.0561 9.20637L62.8801 10.808C62.0961 10.0585 61.1335 9.68377 59.9922 9.68377C59.5456 9.68377 59.1983 9.77617 58.9501 9.96097C58.7021 10.1458 58.578 10.3973 58.578 10.7156C58.578 10.962 58.717 11.1725 58.9948 11.347C59.2826 11.5113 59.6349 11.6345 60.0517 11.7166C60.4785 11.7987 60.935 11.9219 61.4213 12.0862C61.9175 12.2402 62.374 12.4199 62.7908 12.6252C63.2175 12.8203 63.5699 13.1334 63.8477 13.5646C64.1356 13.9855 64.2794 14.4937 64.2794 15.0892C64.2794 16.0748 63.937 16.8705 63.2523 17.4762C62.5774 18.0819 61.595 18.3848 60.3048 18.3848ZM74.649 18.2H72.0439L69.0369 14.0882L68.2628 15.043V18.2H66.1493V7.92817H68.2628V12.5174L71.776 7.92817H74.3811L70.4362 12.7484L74.649 18.2ZM80.7821 18.2H78.6683V13.9958L74.8425 7.92817H77.2541L79.7252 12.0554L82.1666 7.92817H84.5781L80.7821 13.9958V18.2ZM92.2527 18.2H85.9409V7.92817H88.0547V16.275H92.2527V18.2ZM101.206 18.2H94.1798V7.92817H101.206V9.85317H96.2936V12.0246H101.102V13.9496H96.2936V16.275H101.206V18.2ZM112.311 18.2H109.781L107.295 14.4424L104.794 18.2H102.278L105.88 12.9332L102.501 7.92817H105.017L107.295 11.4394L109.542 7.92817H112.088L108.709 12.9178L112.311 18.2Z" fill="#525252"/>
</g>
<defs>
<clipPath id="clip0_106_5721">
<rect width="113" height="28" fill="white"/>
</clipPath>
</defs>
</svg>
