<svg width="21" height="18" viewBox="0 0 21 18" fill="none" xmlns="http://www.w3.org/2000/svg">
<path d="M0.312386 8.39307C2.42831 7.20799 4.79027 6.2189 6.99717 5.22476C10.7939 3.59643 14.6057 1.99632 18.456 0.50664C19.2051 0.252813 20.5511 0.00458398 20.6831 1.13339C20.6108 2.73119 20.3135 4.31965 20.1096 5.9081C19.592 9.40125 18.9938 12.8824 18.4104 16.3641C18.2094 17.5238 16.7806 18.1242 15.8664 17.382C13.6693 15.873 11.4553 14.3787 9.28628 12.8347C8.57576 12.1006 9.23461 11.0465 9.86919 10.5222C11.6788 8.70894 13.5979 7.16834 15.3129 5.26134C15.7755 4.1254 14.4086 5.08274 13.9578 5.37606C11.4804 7.1119 9.06372 8.95372 6.45182 10.4793C5.11767 11.226 3.56269 10.5879 2.22913 10.1712C1.03343 9.66781 -0.718706 9.16069 0.312266 8.39315L0.312386 8.39307Z" fill="#D0D9DE"/>
</svg>
